<?xml version="1.0" standalone="yes"?>
<svg xmlns="http://www.w3.org/2000/svg" width="451" height="76">
<path style="fill:#ededed; stroke:none;" d="M0 0L0 27C3.00807 19.8314 1 8.76096 1 1L5 1C3.23096 0.221062 1.96406 0.0875931 0 0z"/>
<path style="fill:#ffffff; stroke:none;" d="M5 0C14.6822 4.17661 28.5342 3.12254 39 4.16898L109 11.169L189 19.169C200.955 20.3643 214.004 23.4072 226 22.7909C240.389 22.0516 254.67 19.54 269 18.1698C307.328 14.505 345.67 10.6635 384 6.83102C404.458 4.78551 425.434 1.01363 446 1C442.041 -0.66111 437.26 0 433 0L407 0L317 0L5 0z"/>
<path style="fill:#cfcfcf; stroke:none;" d="M1 1L1 28C20.8908 28.1647 41.2069 31.852 61 33.831L176 45.169C191.673 46.7361 208.258 50.2497 224 49.946C232.619 49.7797 241.419 48.0269 250 47.169L300 42.169C332.313 38.9256 364.671 36.0635 397 32.831C414.609 31.0703 432.279 28 450 28L450 0C396.93 4.18835 343.97 10.8726 291 16.169C269.326 18.3361 246.789 22.6605 225 22.6605C210.134 22.6605 194.789 19.6477 180 18.169C144.679 14.6373 109.33 11.2492 74 7.83025C49.8445 5.49267 25.2831 1 1 1z"/>
<path style="fill:#ffffff; stroke:none;" d="M450 0L450 28C422.383 28 394.464 33.0849 367 35.831C319.717 40.5587 272.381 46.4673 225 49.8156C215.951 50.455 206.022 48.0711 197 47.169L127 40.169L47 32.169C31.5647 30.6257 15.11 30.6074 0 27L0 38C19.5929 38.4044 39.4971 41.881 59 43.831L174 55.169C190.828 56.8516 208.082 59.9793 225 60C242.265 60.0211 259.829 56.8858 277 55.169L392 43.831C411.503 41.881 431.407 38.4044 451 38L451 13C451 8.73966 451.661 3.95861 450 0z"/>
<path style="fill:#cfcfcf; stroke:none;" d="M0 38L0 53C18.6448 53.8005 37.4235 56.9736 56 58.831L171 70.169C187.171 71.7859 203.75 74.8028 220 74.9961C245.864 75.3038 272.28 70.7406 298 68.169C348.621 63.1075 399.291 57.0019 450 53L450 38C430.407 38.4044 410.503 41.881 391 43.831L276 55.169C258.876 56.8812 241.219 60.1943 224 59.9961C204.448 59.7711 184.459 56.1146 165 54.169L50 42.831C33.493 41.1805 16.5905 38.1373 0 38z"/>
<path style="fill:#dfdfdf; stroke:none;" d="M450 38L450 53C451.74 48.8523 451.74 42.1477 450 38z"/>
<path style="fill:#eeeeee; stroke:none;" d="M317 40C318.769 40.7789 320.036 40.9124 322 41C320.231 40.2211 318.964 40.0876 317 40M307 41C308.769 41.7789 310.036 41.9124 312 42C310.231 41.221 308.964 41.0876 307 41M297 42C298.769 42.7789 300.036 42.9124 302 43C300.231 42.221 298.964 42.0876 297 42z"/>
<path style="fill:#ededed; stroke:none;" d="M257 46C258.769 46.7789 260.036 46.9124 262 47C260.231 46.2211 258.964 46.0876 257 46M247 47C248.769 47.779 250.036 47.9124 252 48C250.231 47.2211 248.964 47.0876 247 47M237 48C238.769 48.779 240.036 48.9124 242 49C240.231 48.2211 238.964 48.0876 237 48z"/>
<path style="fill:#ffffff; stroke:none;" d="M0 53L0 76L451 76L451 53C431.407 53.4044 411.503 56.881 392 58.831L277 70.169C260.821 71.7867 244.266 74.9739 228 75C206.02 75.0353 183.855 71.3542 162 69.169L47 57.831C31.4522 56.2764 15.6201 53.3224 0 53z"/>
<path style="fill:#ededed; stroke:none;" d="M242 73C243.769 73.7789 245.036 73.9124 247 74C245.231 73.2211 243.964 73.0876 242 73M232 74C233.769 74.7789 235.036 74.9124 237 75C235.231 74.2211 233.964 74.0876 232 74z"/>
</svg>
